HIERARCHY
ROOT Hips
{
	OFFSET 0.00000 0.00000 0.00000
	CHANNELS 6 Xposition Yposition Zposition Zrotation Yrotation Xrotation 
	JOINT LHipJoint
	{
		OFFSET 0 0 0
		CHANNELS 3 Zrotation Yrotation Xrotation
		JOINT LeftHip
		{
			OFFSET 1.81638 -1.86202 0.89635
			CHANNELS 3 Zrotation Yrotation Xrotation
			JOINT LeftKnee
			{
				OFFSET 2.63464 -7.23861 0.00000
				CHANNELS 3 Zrotation Yrotation Xrotation
				JOINT LeftAnkle
				{
					OFFSET 2.45871 -6.75336 0.00000
					CHANNELS 3 Zrotation Yrotation Xrotation
					JOINT LeftToe
					{
						OFFSET 0.34235 -0.94059 2.20020
						CHANNELS 3 Zrotation Yrotation Xrotation
						End Site
						{
							OFFSET 0.00000 -0.00000 1.18611
						}
					}
				}
			}
		}
	}
	JOINT RHipJoint
	{
		OFFSET 0 0 0
		CHANNELS 3 Zrotation Yrotation Xrotation
		JOINT RightHip
		{
			OFFSET -1.84405 -1.86203 0.89635
			CHANNELS 3 Zrotation Yrotation Xrotation
			JOINT RightKnee
			{
				OFFSET -2.71067 -7.44751 0.00000
				CHANNELS 3 Zrotation Yrotation Xrotation
				JOINT RightAnkle
				{
					OFFSET -2.47159 -6.79060 0.00000
					CHANNELS 3 Zrotation Yrotation Xrotation
					JOINT RightToe
					{
						OFFSET -0.26223 -0.72048 2.36007
						CHANNELS 3 Zrotation Yrotation Xrotation
						End Site
						{
							OFFSET -0.00000 -0.00000 1.23343
						}
					}
				}
			}
		}
	}
	JOINT lowerback
	{
		OFFSET 0 0 0
		CHANNELS 3 Zrotation Yrotation Xrotation
		JOINT Chest
		{
			OFFSET 0.02089 1.99248 -0.22512
			CHANNELS 3 Zrotation Yrotation Xrotation
			JOINT Chest2
			{
				OFFSET 0.01476 2.01356 -0.03079
				CHANNELS 3 Zrotation Yrotation Xrotation
				JOINT lowerneck
				{
					OFFSET 0 0 0
					CHANNELS 3 Zrotation Yrotation Xrotation
					JOINT Neck
					{
						OFFSET 0.04846 1.65098 0.06663
						CHANNELS 3 Zrotation Yrotation Xrotation
						JOINT Head
						{
							OFFSET -0.06061 1.60634 -0.07565
							CHANNELS 3 Zrotation Yrotation Xrotation
							End Site
							{
								OFFSET -0.02954 1.73562 -0.03642
							}
						}
					}
				}
				JOINT LeftCollar
				{
					OFFSET 0 0 0
					CHANNELS 3 Zrotation Yrotation Xrotation
					JOINT LeftShoulder
					{
						OFFSET 3.45234 1.47051 -0.06993
CHANNELS 3 Zrotation Xrotation Yrotation
						JOINT LeftElbow
						{
OFFSET 0 -5.493130 0.000000
CHANNELS 3 Zrotation Xrotation Yrotation
							JOINT LeftWrist
							{
OFFSET 0 -3.290370 0.000000
CHANNELS 3 Zrotation Xrotation Yrotation
								JOINT lhand
								{
									OFFSET 0 0 0
CHANNELS 3 Zrotation Xrotation Yrotation
									JOINT LFingers
									{
OFFSET 0 -0.729660 0.000000
CHANNELS 3 Zrotation Xrotation Yrotation
										End Site
										{
OFFSET 0 -0.588270 0.000000
										}
									}
								}
								JOINT LThumb
								{
OFFSET 0 0.000000 0.000000
CHANNELS 3 Zrotation Xrotation Yrotation
									End Site
									{
OFFSET 0 -0.597250 0.597250
									}
								}
							}
						}
					}
				}
				JOINT RightCollar
				{
					OFFSET 0 0 0
					CHANNELS 3 Zrotation Yrotation Xrotation
					JOINT RightShoulder
					{
						OFFSET -3.41935 1.44327 0.20453
CHANNELS 3 Zrotation Xrotation Yrotation
						JOINT RightElbow
						{
OFFSET 0 -5.236840 0.000000
CHANNELS 3 Zrotation Xrotation Yrotation
							JOINT RightWrist
							{
OFFSET 0 -3.382510 0.000000
CHANNELS 3 Zrotation Xrotation Yrotation
								JOINT rhand
								{
									OFFSET 0 0 0
CHANNELS 3 Zrotation Xrotation Yrotation
									JOINT RFingers
									{
OFFSET 0 -0.691450 0.000000
CHANNELS 3 Zrotation Xrotation Yrotation
										End Site
										{
OFFSET 0 -0.557470 0.000000
										}
									}
								}
								JOINT RThumb
								{
OFFSET 0 0.000000 0.000000
CHANNELS 3 Zrotation Xrotation Yrotation
									End Site
									{
OFFSET 0 -0.565980 0.565980
									}
								}
							}
						}
					}
				}
			}
		}
	}
}
MOTION
Frames: 9
Frame Time: 0.008333333333333333
-12.459992 18.245228 -1.865052 6.565865 95.293691 22.145511 0.000000 0.000000 0.000000 -17.690408 -4.462304 -13.103496 2.143487 9.158416 26.292524 0.201451 -14.425070 -12.309757 0.291353 -3.470407 -9.591431 0.000000 0.000000 0.000000 16.456698 13.732163 -31.236122 -1.771474 -8.372349 23.851244 -0.875408 -3.582426 -19.322301 -0.258826 3.264577 -9.016927 -1.469033 -0.703552 20.533735 0.102950 -0.904391 4.647921 1.163844 -0.285600 -6.400028 5.719062 -1.036460 -0.381167 -3.259832 -1.407836 -0.304487 -1.994815 -0.709745 -0.097090 0.000000 0.000000 0.000000 14.692503 11.659037 -32.243612 51.527168 -53.593117 27.398525 7.673364 0.740219 -10.336659 0.000000 0.000000 0.000000 -7.125000 0.000000 0.000000 -16.846268 39.835627 -2.217389 0.000000 0.000000 0.000000 -11.283256 23.629956 34.137568 -23.672956 -34.816397 -7.519066 -0.248671 0.668357 18.841138 0.000000 0.000000 0.000000 7.125000 0.000000 0.000000 26.345672 46.956715 -1.363974
-12.160370 18.253047 -1.841343 -0.506763 96.315119 15.013509 0.000000 0.000000 0.000000 -17.893598 -4.089373 -13.014538 2.305646 9.474085 27.291114 -0.079527 -15.791567 -10.234332 0.334230 -3.714119 -10.273918 0.000000 0.000000 0.000000 15.511131 14.206648 -30.868732 -1.662733 -8.124788 23.093955 -0.731156 -5.039137 -18.760762 -0.139147 2.376059 -6.547406 -1.272481 -0.788208 20.482752 0.365641 -0.949538 4.638445 1.345151 -0.307817 -6.381046 5.817229 -1.424194 -0.473528 -3.726501 -1.930004 -0.178756 -2.166143 -0.970678 -0.073146 0.000000 0.000000 0.000000 14.378734 12.119062 -33.107905 51.413006 -53.549669 27.306707 6.559554 0.840749 -10.449229 0.000000 0.000000 0.000000 -7.125000 0.000000 0.000000 -17.814211 39.851765 -2.347027 0.000000 0.000000 0.000000 -11.317468 24.278521 33.935752 -23.440490 -34.566880 -7.386734 1.464460 0.666107 18.946277 0.000000 0.000000 0.000000 7.125000 0.000000 0.000000 27.892352 46.824718 -1.358940
-11.860684 18.245027 -1.815929 -6.274138 97.451611 9.079568 0.000000 0.000000 0.000000 -18.103373 -3.782630 -13.088006 2.555195 9.935836 28.770861 -0.379245 -17.143693 -7.935084 0.380757 -3.962151 -10.970251 0.000000 0.000000 0.000000 14.612334 14.463343 -30.369027 -1.628379 -8.044829 22.850312 -0.566523 -6.241218 -17.852626 -0.048045 1.375509 -3.783324 -1.132060 -0.871485 20.502966 0.607446 -1.003171 4.653661 1.538689 -0.331829 -6.371688 5.906026 -1.797506 -0.648282 -4.191732 -2.435202 -0.001720 -2.337729 -1.223562 -0.020804 0.000000 0.000000 0.000000 14.021914 12.677905 -33.788453 50.987097 -53.385715 26.964515 5.389567 0.958435 -10.573462 0.000000 0.000000 0.000000 -7.125000 0.000000 0.000000 -18.830629 39.872914 -2.481982 0.000000 0.000000 0.000000 -11.340933 24.942819 33.818141 -23.284582 -34.398517 -7.298407 3.025293 0.585770 19.036829 0.000000 0.000000 0.000000 7.125000 0.000000 0.000000 29.288535 46.699098 -1.340916
-11.560755 18.221412 -1.788338 -10.789011 98.663212 4.288356 0.000000 0.000000 0.000000 -18.290653 -3.574560 -13.297694 2.899383 10.528859 30.708426 -0.675470 -18.349325 -5.464873 0.430599 -4.210926 -11.670835 0.000000 0.000000 0.000000 13.889119 14.363396 -29.767806 -1.664981 -8.130094 23.109854 -0.409118 -7.135122 -16.758631 -0.006301 0.486944 -1.338141 -1.030384 -0.940017 20.585542 0.820292 -1.044742 4.692615 1.720987 -0.348174 -6.369378 5.991730 -2.152980 -0.888481 -4.634845 -2.917549 0.216672 -2.504430 -1.466005 0.054792 0.000000 0.000000 0.000000 13.667956 13.351607 -34.296309 50.295310 -53.113593 26.410254 4.234747 1.008752 -10.727324 0.000000 0.000000 0.000000 -7.125000 0.000000 0.000000 -19.840746 39.921318 -2.602724 0.000000 0.000000 0.000000 -11.335382 25.634639 33.800018 -23.205794 -34.313163 -7.254001 4.405765 0.427630 19.101595 0.000000 0.000000 0.000000 7.125000 0.000000 0.000000 30.506504 46.574096 -1.305001
-11.261608 18.186560 -1.758164 -14.084268 99.885302 0.599305 0.000000 0.000000 0.000000 -18.413974 -3.498241 -13.611164 3.345388 11.229066 33.062367 -0.929231 -19.261899 -3.004468 0.480359 -4.443720 -12.328639 0.000000 0.000000 0.000000 13.426722 13.896300 -29.078234 -1.772832 -8.374838 23.859129 -0.303393 -7.525073 -15.770155 -0.001947 -0.201404 0.553473 -0.937652 -0.979594 20.733438 1.006214 -1.049184 4.756964 1.870993 -0.345192 -6.375240 6.072389 -2.486461 -1.121029 -5.041454 -3.369190 0.406181 -2.659701 -1.693751 0.119975 0.000000 0.000000 0.000000 13.315950 14.137588 -34.598642 49.333184 -52.721656 25.642954 3.179479 1.012751 -10.915954 0.000000 0.000000 0.000000 -7.125000 0.000000 0.000000 -20.776880 40.008554 -2.690916 0.000000 0.000000 0.000000 -11.294114 26.342759 33.892227 -23.197000 -34.303516 -7.248977 5.589526 0.176006 19.140695 0.000000 0.000000 0.000000 7.125000 0.000000 0.000000 31.534176 46.452040 -1.253493
-10.965093 18.145949 -1.726004 -16.234043 101.053703 -2.033041 0.000000 0.000000 0.000000 -18.403821 -3.555760 -14.020204 3.883058 11.998139 35.732187 -1.116816 -19.861725 -0.818604 0.529461 -4.662242 -12.947809 0.000000 0.000000 0.000000 13.247782 13.208912 -28.337950 -1.935554 -8.729193 24.952641 -0.255209 -7.619702 -15.209433 -0.010563 -0.651255 1.789663 -0.775695 -0.986715 20.932319 1.185309 -0.994423 4.839172 1.959868 -0.313550 -6.392229 6.149820 -2.807277 -1.243672 -5.401466 -3.800758 0.462942 -2.796711 -1.911016 0.124406 0.000000 0.000000 0.000000 12.968109 15.019180 -34.725520 48.173893 -52.230375 24.723494 2.287087 1.045804 -11.170840 0.000000 0.000000 0.000000 -7.125000 0.000000 0.000000 -21.598123 40.169115 -2.718505 0.000000 0.000000 0.000000 -11.206210 27.037396 34.051199 -23.223301 -34.332087 -7.263868 6.614232 -0.150443 19.147897 0.000000 0.000000 0.000000 7.125000 0.000000 0.000000 32.403878 46.323476 -1.181990
-10.674524 18.103399 -1.692124 -16.957242 102.118708 -3.280409 0.000000 0.000000 0.000000 -18.132154 -3.757013 -14.603541 4.518643 12.819838 38.698576 -1.234163 -20.213818 0.816014 0.572686 -4.846190 -13.470525 0.000000 0.000000 0.000000 13.421035 12.452715 -27.565000 -2.138433 -9.148430 26.260868 -0.264317 -7.568366 -15.284991 -0.018950 -0.888048 2.440760 -0.408059 -0.962136 21.157009 1.380298 -0.851187 4.923733 1.925896 -0.241105 -6.427115 6.250421 -3.126453 -1.190830 -5.699615 -4.227972 0.306798 -2.911432 -2.124564 0.030020 0.000000 0.000000 0.000000 12.646068 15.979879 -34.706473 46.832560 -51.635093 23.667106 1.632965 1.192647 -11.487358 0.000000 0.000000 0.000000 -7.125000 0.000000 0.000000 -22.242983 40.405291 -2.671986 0.000000 0.000000 0.000000 -11.025223 27.672444 34.198843 -23.245390 -34.356056 -7.276270 7.454701 -0.504089 19.100188 0.000000 0.000000 0.000000 7.125000 0.000000 0.000000 33.084038 46.172357 -1.075344
-10.392310 18.060447 -1.658642 -15.942523 102.986449 -2.779466 0.000000 0.000000 0.000000 -17.445867 -4.069814 -15.479159 5.266883 13.671543 41.950300 -1.286845 -20.405319 1.543447 0.595142 -4.938731 -13.733876 0.000000 0.000000 0.000000 14.061078 11.772850 -26.786907 -2.362402 -9.581704 27.633764 -0.330923 -7.466146 -16.074426 -0.021699 -0.951044 2.614173 0.309901 -0.901929 21.370000 1.624448 -0.579305 5.001566 1.710301 -0.110705 -6.469866 6.412343 -3.441557 -0.985678 -5.938970 -4.651094 -0.077353 -3.010956 -2.334338 -0.165553 0.000000 0.000000 0.000000 12.338824 17.000938 -34.525511 45.284355 -50.903764 22.460164 1.342784 1.577065 -11.887105 0.000000 0.000000 0.000000 -7.125000 0.000000 0.000000 -22.616605 40.748411 -2.518131 0.000000 0.000000 0.000000 -10.733872 28.140105 34.273094 -23.194723 -34.301023 -7.247786 8.077829 -0.784184 18.940150 0.000000 0.000000 0.000000 7.125000 0.000000 0.000000 33.517804 45.954920 -0.890793
-10.116977 18.016688 -1.628133 -13.836842 103.653614 -1.108251 0.000000 0.000000 0.000000 -16.454474 -4.420662 -16.654330 6.091050 14.509290 45.333383 -1.296555 -20.513415 1.431052 0.591227 -4.922769 -13.688504 0.000000 0.000000 0.000000 15.023158 11.241992 -26.057241 -2.584352 -9.988252 28.939940 -0.437740 -7.353065 -17.295385 -0.020621 -0.927098 2.548235 1.286895 -0.808307 21.521895 1.902481 -0.204051 5.061992 1.354652 0.065770 -6.498312 6.628410 -3.741194 -0.745382 -6.122198 -5.056390 -0.553073 -3.099041 -2.534818 -0.397652 0.000000 0.000000 0.000000 12.050510 18.067194 -34.211470 43.588878 -50.054112 21.152428 1.384301 2.184500 -12.328604 0.000000 0.000000 0.000000 -7.125000 0.000000 0.000000 -22.731579 41.159697 -2.286811 0.000000 0.000000 0.000000 -10.373577 28.386685 34.259076 -23.036446 -34.128566 -7.158817 8.520418 -0.888637 18.680217 0.000000 0.000000 0.000000 7.125000 0.000000 0.000000 33.745879 45.677116 -0.637757
